# xmcd
#
# Track frame offsets:
#	150
#	12282
#	28999
#	40637
#	53436
#	76204
#	92604
#	102356
#	114528
#	130127
#	142341
#	155742
#	171994
#	184913
#
# Disc length: 2624 seconds
#
# Revision: 0
# Processed by: cddbd v1.5.1PL0 Copyright (c) Steve Scherf et al.
# Submitted via: audiograbber 1.83.01
#
DISCID=b90a3e0e
DTITLE=Merle Haggard - Wanted
DYEAR=2003
DGENRE=Country
TTITLE0=Okie From Muskogee
TTITLE1=Today I Started Loving You Again
TTITLE2=Carolyn
TTITLE3=The Fightin' Side Of Me
TTITLE4=If Only I Coud Fly
TTITLE5=Daddy Frank (The Guitar Man)
TTITLE6=Mama Tried
TTITLE7=The Moment I Lost You
TTITLE8=It's All In The Movies
TTITLE9=The Roots Of My Raising
TTITLE10=Cherokee Maiden
TTITLE11=Mama's Hungry Eyes
TTITLE12=Kentucky Gambler
TTITLE13=Things Aren't Funny Anymore
EXTD=
EXTT0=
EXTT1=
EXTT2=
EXTT3=
EXTT4=
EXTT5=
EXTT6=
EXTT7=
EXTT8=
EXTT9=
EXTT10=
EXTT11=
EXTT12=
EXTT13=
PLAYORDER=
